<?xml version="1.0" encoding="UTF-8" standalone="no"?>
<!-- Created with Inkscape (http://www.inkscape.org/) -->

<svg
   width="210mm"
   height="297mm"
   viewBox="0 0 210 297"
   version="1.1"
   id="svg5"
   inkscape:export-filename="/home/badele/private/projects/regardons-ailleurs/static/images/logo.png"
   inkscape:export-xdpi="65.169731"
   inkscape:export-ydpi="65.169731"
   inkscape:version="1.1.1 (3bf5ae0d25, 2021-09-20, custom)"
   sodipodi:docname="logo.svg"
   xmlns:inkscape="http://www.inkscape.org/namespaces/inkscape"
   xmlns:sodipodi="http://sodipodi.sourceforge.net/DTD/sodipodi-0.dtd"
   xmlns="http://www.w3.org/2000/svg"
   xmlns:svg="http://www.w3.org/2000/svg">
  <sodipodi:namedview
     id="namedview7"
     pagecolor="#ffffff"
     bordercolor="#666666"
     borderopacity="1.0"
     inkscape:pageshadow="2"
     inkscape:pageopacity="0.0"
     inkscape:pagecheckerboard="0"
     inkscape:document-units="mm"
     showgrid="false"
     inkscape:zoom="2.614648"
     inkscape:cx="57.177868"
     inkscape:cy="98.101158"
     inkscape:window-width="1878"
     inkscape:window-height="998"
     inkscape:window-x="20"
     inkscape:window-y="40"
     inkscape:window-maximized="1"
     inkscape:current-layer="layer1" />
  <defs
     id="defs2">
    <marker
       style="overflow:visible;"
       id="Arrow1Lend"
       refX="0.0"
       refY="0.0"
       orient="auto"
       inkscape:stockid="Arrow1Lend"
       inkscape:isstock="true">
      <path
         transform="scale(0.8) rotate(180) translate(12.5,0)"
         style="fill-rule:evenodd;fill:context-stroke;stroke:context-stroke;stroke-width:1.0pt;"
         d="M 0.0,0.0 L 5.0,-5.0 L -12.5,0.0 L 5.0,5.0 L 0.0,0.0 z "
         id="path21941" />
    </marker>
  </defs>
  <g
     inkscape:label="Calque 1"
     inkscape:groupmode="layer"
     id="layer1">
    <text
       xml:space="preserve"
       style="font-style:normal;font-variant:normal;font-weight:normal;font-stretch:normal;font-size:11.2889px;line-height:1.25;font-family:'Nova Round';-inkscape-font-specification:'Nova Round, Normal';font-variant-ligatures:normal;font-variant-caps:normal;font-variant-numeric:normal;font-variant-east-asian:normal;fill:#000000;fill-opacity:1;stroke:none;stroke-width:0.264583"
       x="31.985712"
       y="49.809395"
       id="text2708"><tspan
         sodipodi:role="line"
         id="tspan22904">regardons ailleurs</tspan></text>
    <g
       id="g22567"
       transform="matrix(0.04169323,0,0,0.04169323,7.7708559,41.385853)"
       style="fill:#ff6600">
	<g
   id="g22565"
   style="fill:#ff6600">
		<path
   d="M 384,0 C 316.809,0 284.091,45.528 256,45.528 227.909,45.528 195.191,0 128,0 57.307,0 0,57.307 0,128 c 0,70.693 57.307,128 128,128 67.191,0 99.909,-45.528 128,-45.528 28.091,0 60.809,45.528 128,45.528 70.693,0 128,-57.307 128,-128 C 512,57.307 454.693,0 384,0 Z M 128,156.621 c -25.4,0 -48.228,-11.173 -64,-28.939 15.772,-17.766 38.6,-28.939 64,-28.939 25.4,0 48.228,11.173 64,28.939 -15.772,17.767 -38.6,28.939 -64,28.939 z m 256,0.636 c -25.679,0 -48.758,-11.295 -64.703,-29.257 15.945,-17.962 39.024,-29.257 64.703,-29.257 25.679,0 48.758,11.295 64.703,29.257 -15.945,17.962 -39.024,29.257 -64.703,29.257 z"
   id="path22563"
   style="fill:#ff6600" />

	</g>

</g>
    <g
       id="g22569"
       transform="matrix(0.26458333,0,0,0.26458333,-47.311341,-2.7940247)">
</g>
    <g
       id="g22571"
       transform="matrix(0.26458333,0,0,0.26458333,-47.311341,-2.7940247)">
</g>
    <g
       id="g22573"
       transform="matrix(0.26458333,0,0,0.26458333,-47.311341,-2.7940247)">
</g>
    <g
       id="g22575"
       transform="matrix(0.26458333,0,0,0.26458333,-47.311341,-2.7940247)">
</g>
    <g
       id="g22577"
       transform="matrix(0.26458333,0,0,0.26458333,-47.311341,-2.7940247)">
</g>
    <g
       id="g22579"
       transform="matrix(0.26458333,0,0,0.26458333,-47.311341,-2.7940247)">
</g>
    <g
       id="g22581"
       transform="matrix(0.26458333,0,0,0.26458333,-47.311341,-2.7940247)">
</g>
    <g
       id="g22583"
       transform="matrix(0.26458333,0,0,0.26458333,-47.311341,-2.7940247)">
</g>
    <g
       id="g22585"
       transform="matrix(0.26458333,0,0,0.26458333,-47.311341,-2.7940247)">
</g>
    <g
       id="g22587"
       transform="matrix(0.26458333,0,0,0.26458333,-47.311341,-2.7940247)">
</g>
    <g
       id="g22589"
       transform="matrix(0.26458333,0,0,0.26458333,-47.311341,-2.7940247)">
</g>
    <g
       id="g22591"
       transform="matrix(0.26458333,0,0,0.26458333,-47.311341,-2.7940247)">
</g>
    <g
       id="g22593"
       transform="matrix(0.26458333,0,0,0.26458333,-47.311341,-2.7940247)">
</g>
    <g
       id="g22595"
       transform="matrix(0.26458333,0,0,0.26458333,-47.311341,-2.7940247)">
</g>
    <g
       id="g22597"
       transform="matrix(0.26458333,0,0,0.26458333,-47.311341,-2.7940247)">
</g>
  </g>
</svg>
